<?xml version="1.0" encoding="utf-8"?>
<!-- Generator: Adobe Illustrator 25.0.1, SVG Export Plug-In . SVG Version: 6.00 Build 0)  -->
<svg version="1.1" id="Layer_1" xmlns="http://www.w3.org/2000/svg" xmlns:xlink="http://www.w3.org/1999/xlink" x="0px" y="0px"
	 viewBox="0 0 117.8 134.5" style="enable-background:new 0 0 117.8 134.5;" xml:space="preserve">
<path d="M36.1,51.3h-3.4c-4.5,0-6.6,2.2-6.6,6.7v18.6c0,4.5,2.2,6.6,6.6,6.6H36c4.4,0,6.6-2.2,6.6-6.6v-8.3h-7.1v8.2
	c0,0.4-0.3,0.7-0.8,0.7h-0.7c-0.5,0-0.7-0.2-0.7-0.7V58.1c0-0.5,0.2-0.7,0.7-0.7h0.9c0.5,0,0.7,0.2,0.7,0.7v4.1
	c0,2.1,0.1,3.1,2.1,3.1h5.1V58C42.6,53.4,40.5,51.3,36.1,51.3z"/>
<path d="M55.6,51.3H52c-4.5,0-6.7,2.2-6.7,6.7v18.6c0,4.5,2.2,6.6,6.7,6.6h3.6c4.4,0,6.6-2.2,6.6-6.6V58
	C62.2,53.4,60.1,51.3,55.6,51.3z M54.9,76.4c0,0.5-0.2,0.7-0.8,0.7h-0.7c-0.5,0-0.8-0.2-0.8-0.7V58.1c0-0.5,0.2-0.7,0.8-0.7h0.7
	c0.5,0,0.8,0.2,0.8,0.7V76.4z"/>
<path d="M72,71.6h1.5c0.5,0,0.7,0.2,0.7,0.7v7.4c0,2.1,0.1,3.1,2.1,3.1h6.2c0,0,0.1,0,0.1,0s0,0-0.1-0.1c-0.6-0.5-0.9-1.9-0.9-3V73
	c0-2.5-1-3.8-3.4-4.4l-0.4-0.1l0.3-0.1c2.3-0.8,3.3-2.4,3.3-5.1v-5.1c0-4.5-2.2-6.6-6.7-6.6h-10v31.3H72V71.6z M72,57.8h1.5
	c0.5,0,0.7,0.2,0.7,0.7v6.4c0,0.5-0.2,0.7-0.7,0.7H72V57.8z"/>
<path d="M91.6,51.6h-7.4v31.3h7.4V51.6z"/>
<path d="M114.1,31.2l-0.5-0.3L78.8,10.8l-5-2.9L22.5,37.6l-0.8-3.7l0,0L70.2,5.7l-3.9-2.3L20.8,29.8L20,26.1l0,0L62.7,1.4l-1.3-0.8
	c-1.7-1-3.7-0.8-6.1,0.6L20,21.7l-5,2.9v59.4l-3.6-1.2V26.6l-3.9,2.3v52.7l-3.6-1.2V30.9l-1.3,0.8c-1.7,1-2.6,2.9-2.6,5.5v46.7
	l51.4,29.7l-2.8,2.6l0,0L0,88.1v4.5l45.5,26.3l-2.8,2.6l0,0L0,96.8v1.5v0c0,1.9,1.2,3.6,3.5,5l0.5,0.3l34.8,20.1l5,2.9l51.4-29.7
	l0.8,3.7l0,0l-48.5,28.1l3.9,2.3L97,104.6l0.8,3.7l0,0l-42.6,24.7l1.3,0.7l0,0c1.7,1,3.7,0.8,6.1-0.6l35.3-20.4l5-2.9V50.5l3.6,1.2
	v56.2l3.9-2.3V52.9l3.6,1.2v49.4l1.3-0.8c1.7-1,2.6-2.9,2.6-5.6V56.3v-5.8L66.3,20.9l2.8-2.6l0,0l48.5,28.1v-4.5L72.1,15.6l2.8-2.6
	l0,0l42.6,24.7v-1.5v0C117.7,34.2,116.5,32.5,114.1,31.2z M94.5,42.9c1.6,1,3.1,3.5,3.1,5.4v37.7c0,1.9-1.4,4.5-3.1,5.4L62,110.4
	c-0.8,0.5-1.9,0.7-3.1,0.7c-1.2,0-2.3-0.2-3.1-0.7L23.1,91.5c-1.6-1-3-3.4-3.1-5.4V48.3c0-1.9,1.4-4.4,3.1-5.3l32.6-18.9
	c0.8-0.5,1.9-0.7,3.1-0.7s2.3,0.2,3.1,0.7L94.5,42.9z"/>
</svg>
