<svg xmlns="http://www.w3.org/2000/svg" fill="none" width="136" height="136" viewBox="0 0 136 136" style="background-color: transparent;" class="svelte-1tytmva"><defs><mask id="border-mask" x="0" y="0" width="308" height="136" maskUnits="userSpaceOnUse" maskContentUnits="userSpaceOnUse"><path fill="#fff" d="M0 0h308v136H0z" class="svelte-1tytmva"></path><path d="M115.084 31.849L61.916.809a5.66 5.66 0 00-5.832 0L2.916 31.85C1.118 32.927 0 34.839 0 36.949v62.127c0 2.109 1.118 4.021 2.916 5.1l53.168 31.039c.923.54 1.895.785 2.916.785 1.02 0 2.041-.245 2.916-.785l53.168-31.039c1.798-1.03 2.916-2.991 2.916-5.1V36.948c0-2.108-1.118-4.02-2.916-5.1z" fill="#000" class="svelte-1tytmva"></path></mask></defs><g opacity="0.75"><path style="fill: rgb(22, 52, 62); stroke: none;" d="M41.14 55.694h-2.663c-3.488 0-5.14 1.69-5.14 5.18V75.29c0 3.491 1.689 5.143 5.14 5.143h2.589c3.45 0 5.139-1.69 5.139-5.143v-6.457h-5.552v6.344c0 .338-.225.526-.638.526h-.562c-.376 0-.526-.188-.526-.526v-14.19c0-.375.188-.525.526-.525h.675c.375 0 .525.187.525.525v3.154c0 1.651.075 2.44 1.613 2.44h3.939v-5.706c0-3.53-1.613-5.18-5.064-5.18z M56.297 55.694h-2.813c-3.49 0-5.177 1.69-5.177 5.18V75.29c0 3.491 1.688 5.143 5.176 5.143h2.814c3.451 0 5.14-1.69 5.14-5.143V60.875c.037-3.492-1.651-5.18-5.14-5.18zm-.525 19.483c0 .376-.188.526-.6.526h-.563c-.413 0-.6-.188-.6-.526v-14.19c0-.375.187-.525.6-.525h.563c.412 0 .6.187.6.525v14.19zM69.09 71.498h1.162c.376 0 .526.188.526.526v5.743c0 1.652.075 2.44 1.613 2.44h4.876s0-.037-.075-.112c-.45-.375-.675-1.464-.675-2.29v-5.256c0-1.914-.788-2.928-2.626-3.378l-.3-.075.263-.075c1.763-.6 2.588-1.84 2.588-3.942v-3.98c0-3.453-1.688-5.142-5.177-5.142H63.5v24.288h5.59v-8.747zm0-10.774h1.2c.375 0 .525.188.525.526v4.993c0 .375-.188.525-.525.525h-1.2v-6.044zM84.32 55.92h-5.777v24.288h5.777V55.919z" class="svelte-1tytmva"></path><path style="fill: rgb(22, 52, 62); stroke: rgb(22, 52, 62); stroke-width: 1.5px;" d="M101.801 40.115l-.413-.225-27.01-15.617-3.901-2.252L30.6 45.07l-.637-2.891.037-.038L67.663 20.37l-3.038-1.764-35.338 20.459-.637-2.89.037-.038L61.812 16.99l-1.013-.6c-1.313-.75-2.889-.6-4.727.45L28.65 32.72l-3.864 2.215v46.099l-2.814-.901V36.549l-3.038 1.764v40.844l-2.814-.901V39.928l-1.013.6c-1.313.75-1.988 2.215-1.988 4.28v36.188l39.914 23.05-2.175 1.989-.038-.037-37.7-21.736v3.491l35.374 20.422-2.176 1.99-.037-.038-33.162-19.108v1.164c0 1.502.938 2.816 2.739 3.867l.412.225 27.047 15.617 3.864 2.214 39.915-23.05.637 2.891-.037.038-37.664 21.773 3.039 1.765 35.375-20.422.638 2.89-.038.038-33.124 19.145.975.563.038.038c1.313.751 2.888.601 4.726-.451l27.46-15.841 3.864-2.215V55.131l2.814.901v43.584l3.038-1.764V56.97l2.814.9V96.2l1.012-.6c1.313-.752 1.989-2.216 1.989-4.318V55.094L64.625 32.119l2.213-1.99.038.038 37.663 21.773V48.45L69.164 28.027l2.176-1.99.037.038 33.125 19.146v-1.164c.037-1.614-.901-2.89-2.701-3.942zm-15.23 9.122c1.275.751 2.4 2.703 2.438 4.167v29.282c0 1.463-1.126 3.453-2.401 4.204L61.286 101.53c-.638.375-1.5.563-2.438.563-.9 0-1.8-.188-2.4-.563L31.087 86.89c-1.275-.75-2.363-2.665-2.4-4.167V53.404c.037-1.501 1.125-3.378 2.4-4.13l25.322-14.64c.6-.375 1.5-.563 2.438-.563.938 0 1.8.188 2.438.563L86.57 49.237z" class="svelte-1tytmva"></path></g></svg>